<svg width="129" height="129" viewBox="0 0 129 129" fill="none" xmlns="http://www.w3.org/2000/svg">
<path d="M116.004 114.273H12.9957C10.4754 114.27 8.05907 113.268 6.27647 111.487C4.49386 109.705 3.49048 107.289 3.48633 104.769V36.6482C3.48678 34.1245 4.4882 31.7041 6.27091 29.9178C8.05362 28.1315 10.4721 27.1252 12.9957 27.1196H48.8664C49.3288 27.1196 49.7722 27.3033 50.0991 27.6302C50.426 27.9571 50.6097 28.4005 50.6097 28.8629C50.6097 29.3252 50.426 29.7686 50.0991 30.0955C49.7722 30.4225 49.3288 30.6061 48.8664 30.6061H12.9957C11.3964 30.6107 9.86427 31.2494 8.73521 32.3821C7.60614 33.5147 6.97235 35.0489 6.97281 36.6482V104.769C6.97466 106.366 7.60981 107.897 8.73892 109.026C9.86804 110.155 11.3989 110.79 12.9957 110.792H116.004C117.601 110.79 119.132 110.155 120.261 109.026C121.39 107.897 122.025 106.366 122.027 104.769V36.6482C122.027 35.0489 121.394 33.5147 120.264 32.3821C119.135 31.2494 117.603 30.6107 116.004 30.6061H80.1332C79.6709 30.6061 79.2275 30.4225 78.9006 30.0955C78.5737 29.7686 78.39 29.3252 78.39 28.8629C78.39 28.4005 78.5737 27.9571 78.9006 27.6302C79.2275 27.3033 79.6709 27.1196 80.1332 27.1196H116.004C118.528 27.1252 120.946 28.1315 122.729 29.9178C124.511 31.7041 125.513 34.1245 125.513 36.6482V104.769C125.509 107.289 124.506 109.705 122.723 111.487C120.941 113.268 118.524 114.27 116.004 114.273V114.273Z" fill="#39DB00"/>
<path d="M77.7295 37.3211H51.2706C50.1729 37.3197 49.1207 36.8831 48.3445 36.1069C47.5684 35.3308 47.1318 34.2785 47.1304 33.1809V18.8671C47.1318 17.7695 47.5684 16.7172 48.3445 15.9411C49.1207 15.165 50.1729 14.7283 51.2706 14.7269H77.7295C78.8272 14.7283 79.8794 15.165 80.6556 15.9411C81.4317 16.7172 81.8683 17.7695 81.8697 18.8671V33.1809C81.8683 34.2785 81.4317 35.3308 80.6556 36.1069C79.8794 36.8831 78.8272 37.3197 77.7295 37.3211ZM51.2706 18.2134C51.0973 18.2139 50.9313 18.2829 50.8088 18.4054C50.6863 18.5279 50.6173 18.6939 50.6169 18.8671V33.1809C50.6173 33.3541 50.6863 33.5201 50.8088 33.6426C50.9313 33.7651 51.0973 33.8342 51.2706 33.8346H77.7295C77.9028 33.8342 78.0688 33.7651 78.1913 33.6426C78.3138 33.5201 78.3828 33.3541 78.3832 33.1809V18.8671C78.3828 18.6939 78.3138 18.5279 78.1913 18.4054C78.0688 18.2829 77.9028 18.2139 77.7295 18.2134H51.2706Z" fill="#39DB00"/>
<path d="M36.7106 64.9602C34.5988 64.9602 32.5344 64.334 30.7785 63.1607C29.0227 61.9875 27.6541 60.3199 26.846 58.3689C26.0378 56.4179 25.8264 54.271 26.2384 52.1998C26.6504 50.1286 27.6673 48.2261 29.1605 46.7328C30.6538 45.2395 32.5563 44.2226 34.6275 43.8106C36.6987 43.3986 38.8456 43.6101 40.7966 44.4182C42.7477 45.2264 44.4152 46.5949 45.5885 48.3508C46.7617 50.1067 47.3879 52.1711 47.3879 54.2828C47.3847 57.1137 46.2587 59.8276 44.257 61.8293C42.2553 63.831 39.5414 64.957 36.7106 64.9602V64.9602ZM36.7106 47.092C35.2883 47.092 33.8981 47.5137 32.7155 48.3038C31.533 49.094 30.6113 50.217 30.0671 51.531C29.5228 52.845 29.3804 54.2908 29.6579 55.6857C29.9353 57.0806 30.6202 58.3619 31.6259 59.3676C32.6315 60.3732 33.9128 61.0581 35.3077 61.3355C36.7026 61.613 38.1484 61.4706 39.4624 60.9263C40.7764 60.3821 41.8994 59.4604 42.6896 58.2779C43.4797 57.0953 43.9014 55.7051 43.9014 54.2828C43.8996 52.3763 43.1414 50.5483 41.7932 49.2002C40.4451 47.852 38.6171 47.0938 36.7106 47.092V47.092Z" fill="#39DB00"/>
<path d="M55.5168 83.2695H17.9046C17.6715 83.2696 17.4407 83.223 17.226 83.1323C17.0112 83.0417 16.8169 82.9089 16.6543 82.7418C16.4918 82.5747 16.3644 82.3768 16.2797 82.1596C16.1951 81.9424 16.1548 81.7105 16.1613 81.4775C16.3092 76.126 18.539 71.0433 22.3765 67.3104C26.2139 63.5775 31.3563 61.489 36.7098 61.489C42.0634 61.489 47.2057 63.5775 51.0432 67.3104C54.8806 71.0433 57.1104 76.126 57.2583 81.4775C57.2648 81.7105 57.2245 81.9424 57.1399 82.1596C57.0552 82.3768 56.9278 82.5747 56.7653 82.7418C56.6028 82.9089 56.4084 83.0417 56.1936 83.1323C55.9789 83.223 55.7481 83.2696 55.515 83.2695H55.5168ZM19.7803 79.7831H53.6341C53.0899 75.6801 51.0738 71.9145 47.9607 69.187C44.8476 66.4595 40.8496 64.9558 36.7107 64.9558C32.5718 64.9558 28.5738 66.4595 25.4607 69.187C22.3476 71.9145 20.3314 75.6801 19.7873 79.7831H19.7803Z" fill="#39DB00"/>
<path d="M111.095 49.4628H72.6251C72.1627 49.4628 71.7193 49.2791 71.3924 48.9522C71.0655 48.6253 70.8818 48.1819 70.8818 47.7196C70.8818 47.2572 71.0655 46.8138 71.3924 46.4869C71.7193 46.16 72.1627 45.9763 72.6251 45.9763H111.095C111.557 45.9763 112.001 46.16 112.328 46.4869C112.655 46.8138 112.838 47.2572 112.838 47.7196C112.838 48.1819 112.655 48.6253 112.328 48.9522C112.001 49.2791 111.557 49.4628 111.095 49.4628Z" fill="#39DB00"/>
<path d="M111.095 65.5721H72.6251C72.1627 65.5721 71.7193 65.3884 71.3924 65.0615C71.0655 64.7346 70.8818 64.2912 70.8818 63.8288C70.8818 63.3665 71.0655 62.9231 71.3924 62.5962C71.7193 62.2692 72.1627 62.0856 72.6251 62.0856H111.095C111.557 62.0856 112.001 62.2692 112.328 62.5962C112.655 62.9231 112.838 63.3665 112.838 63.8288C112.838 64.2912 112.655 64.7346 112.328 65.0615C112.001 65.3884 111.557 65.5721 111.095 65.5721Z" fill="#39DB00"/>
<path d="M111.095 81.6814H72.6251C72.1627 81.6814 71.7193 81.4978 71.3924 81.1709C71.0655 80.8439 70.8818 80.4005 70.8818 79.9382C70.8818 79.4759 71.0655 79.0325 71.3924 78.7055C71.7193 78.3786 72.1627 78.1949 72.6251 78.1949H111.095C111.557 78.1949 112.001 78.3786 112.328 78.7055C112.655 79.0325 112.838 79.4759 112.838 79.9382C112.838 80.4005 112.655 80.8439 112.328 81.1709C112.001 81.4978 111.557 81.6814 111.095 81.6814Z" fill="#39DB00"/>
<path d="M111.095 97.7961H17.9049C17.4425 97.7961 16.9991 97.6124 16.6722 97.2855C16.3453 96.9586 16.1616 96.5152 16.1616 96.0528C16.1616 95.5905 16.3453 95.1471 16.6722 94.8202C16.9991 94.4932 17.4425 94.3096 17.9049 94.3096H111.095C111.557 94.3096 112.001 94.4932 112.328 94.8202C112.655 95.1471 112.838 95.5905 112.838 96.0528C112.838 96.5152 112.655 96.9586 112.328 97.2855C112.001 97.6124 111.557 97.7961 111.095 97.7961Z" fill="#39DB00"/>
</svg>
