<svg width="238" height="318" viewBox="0 0 238 318" fill="none" xmlns="http://www.w3.org/2000/svg">
<rect width="238" height="318" fill="#E5E5E5"/>
<g clip-path="url(#clip0_0_1)">
<rect width="1600" height="4649" transform="translate(-319 -1643)" fill="white"/>
<g filter="url(#filter0_d_0_1)">
<g filter="url(#filter1_d_0_1)">
<rect x="4" y="3" width="224" height="305" fill="#E5F1FF"/>
</g>
<g filter="url(#filter2_d_0_1)">
<path fill-rule="evenodd" clip-rule="evenodd" d="M103.354 3H4V80.7507C4.83831 80.6314 5.66848 80.4985 6.48936 80.3502C16.662 78.5777 25.2398 74.4598 30.6279 65.6511C33.2536 61.4184 35.1277 56.1447 36.994 50.893C39.0512 45.1042 41.0989 39.3421 44.1331 35.0309C49.9199 26.8085 59.427 23.7737 69.5997 22.0012C71.1519 21.7307 72.7228 21.4875 74.2942 21.2443C83.0212 19.8934 91.7672 18.5395 97.4585 12.4896C99.8405 9.93918 101.649 6.54463 103.354 3ZM4 95.7625L12.8688 89.7318L36.2099 73.86L59.6829 57.8986L83.1559 41.9371L106.629 25.9757L129.97 10.1039L140.417 3L129.97 10.1038L106.629 25.9756L83.1559 41.9371L59.6829 57.8985L36.2099 73.86L12.8688 89.7318L4 95.7625ZM4 308V131.989C4.45442 131.054 4.90365 130.105 5.34432 129.147C6.83804 125.899 8.24733 122.528 9.65916 119.15C12.5863 112.146 15.5243 105.116 19.2482 99.1134C24.6363 90.3047 31.6193 83.8414 41.7919 82.0689C46.6935 81.1832 52.2869 81.379 57.8568 81.574H57.8569C63.9967 81.789 70.108 82.003 75.2327 80.7662C85.0067 78.4074 91.3241 70.6817 96.7122 61.873C97.5342 60.5291 98.3377 59.1578 99.1415 57.7861L99.1419 57.7854C103.606 50.1662 108.081 42.5303 115.799 39.4617C119.749 37.9078 124.548 37.6026 129.347 37.2974C135.454 36.909 141.562 36.5206 145.919 33.5579C150.197 30.6487 152.805 25.3657 155.401 20.1048L155.401 20.1047C157.607 15.636 159.805 11.1833 163.012 8.21481C166.245 5.22215 170.533 3.71877 174.782 3H228V308H4Z" fill="white"/>
</g>
</g>
<g clip-path="url(#clip1_0_1)" filter="url(#filter3_d_0_1)">
<path d="M106.832 187.768C81.5621 187.768 61 167.207 61 141.937C61 116.667 81.5621 96.1045 106.832 96.1045C115.619 96.1045 124.169 98.6084 131.556 103.35C133.006 104.284 133.431 106.217 132.497 107.671C131.561 109.125 129.631 109.546 128.177 108.612C121.802 104.516 114.419 102.354 106.832 102.354C85.0074 102.354 67.2498 120.112 67.2498 141.937C67.2498 163.761 85.0074 181.518 106.832 181.518C128.656 181.518 146.414 163.761 146.414 141.937C146.414 140.632 146.351 139.34 146.231 138.07C146.064 136.349 147.322 134.824 149.039 134.658C150.764 134.499 152.284 135.749 152.451 137.466C152.593 138.937 152.664 140.428 152.664 141.937C152.664 167.207 132.102 187.768 106.832 187.768V187.768Z" fill="#FF3C8E"/>
<path d="M112.04 152.353C111.24 152.353 110.44 152.048 109.832 151.437L91.0825 132.687C89.8618 131.466 89.8618 129.487 91.0825 128.266C92.3032 127.045 94.2822 127.045 95.5028 128.266L112.044 144.808L155.663 101.188C156.885 99.9672 158.864 99.9672 160.084 101.188C161.305 102.409 161.305 104.388 160.084 105.608L114.252 151.44C113.64 152.048 112.84 152.353 112.04 152.353V152.353Z" fill="#FF3C8E"/>
</g>
<path d="M64.38 253.216C62.46 253.216 60.864 252.58 59.592 251.308C58.32 250.036 57.684 248.47 57.684 246.61C57.684 244.75 58.32 243.184 59.592 241.912C60.864 240.64 62.46 240.004 64.38 240.004C65.832 240.004 67.134 240.43 68.286 241.282C69.45 242.122 70.212 243.22 70.572 244.576H67.746C67.494 243.952 67.05 243.454 66.414 243.082C65.79 242.71 65.112 242.524 64.38 242.524C63.18 242.524 62.202 242.914 61.446 243.694C60.69 244.474 60.312 245.446 60.312 246.61C60.312 247.774 60.69 248.746 61.446 249.526C62.202 250.306 63.18 250.696 64.38 250.696C65.112 250.696 65.79 250.51 66.414 250.138C67.05 249.766 67.494 249.268 67.746 248.644H70.572C70.212 250 69.45 251.104 68.286 251.956C67.134 252.796 65.832 253.216 64.38 253.216ZM74.6989 253H72.2329V239.5H74.6989V245.026C75.2509 244.21 76.1089 243.802 77.2729 243.802C78.3529 243.802 79.1989 244.162 79.8109 244.882C80.4349 245.59 80.7469 246.538 80.7469 247.726V253H78.2809V248.14C78.2809 247.48 78.1429 246.97 77.8669 246.61C77.5909 246.238 77.2009 246.052 76.6969 246.052C76.0969 246.052 75.6109 246.268 75.2389 246.7C74.8789 247.132 74.6989 247.768 74.6989 248.608V253ZM87.1483 253.198C85.7683 253.198 84.6343 252.754 83.7463 251.866C82.8703 250.978 82.4323 249.85 82.4323 248.482C82.4323 247.138 82.8763 246.022 83.7643 245.134C84.6643 244.246 85.7983 243.802 87.1663 243.802C88.5463 243.802 89.6923 244.276 90.6043 245.224C91.5163 246.16 91.9363 247.444 91.8643 249.076H84.8443C84.8923 249.64 85.1263 250.114 85.5463 250.498C85.9663 250.87 86.5423 251.056 87.2743 251.056C87.7183 251.056 88.1083 250.972 88.4443 250.804C88.7923 250.624 89.0383 250.378 89.1823 250.066H91.7563C91.4923 250.99 90.9403 251.746 90.1003 252.334C89.2603 252.91 88.2763 253.198 87.1483 253.198ZM87.0943 245.8C86.5303 245.8 86.0563 245.95 85.6723 246.25C85.3003 246.538 85.0543 246.94 84.9343 247.456H89.1643C89.0323 246.892 88.7683 246.478 88.3723 246.214C87.9883 245.938 87.5623 245.8 87.0943 245.8ZM97.8187 253.198C96.4627 253.198 95.3347 252.748 94.4347 251.848C93.5347 250.936 93.0847 249.82 93.0847 248.5C93.0847 247.18 93.5347 246.07 94.4347 245.17C95.3347 244.258 96.4627 243.802 97.8187 243.802C99.0187 243.802 100.021 244.138 100.825 244.81C101.641 245.482 102.175 246.358 102.427 247.438H99.8707C99.4747 246.502 98.7907 246.034 97.8187 246.034C97.1587 246.034 96.6187 246.262 96.1987 246.718C95.7787 247.162 95.5687 247.756 95.5687 248.5C95.5687 249.244 95.7787 249.844 96.1987 250.3C96.6187 250.744 97.1587 250.966 97.8187 250.966C98.7907 250.966 99.4747 250.498 99.8707 249.562H102.427C102.175 250.642 101.641 251.518 100.825 252.19C100.021 252.862 99.0187 253.198 97.8187 253.198ZM110.24 253L106.568 248.86V253H104.102V239.5H106.568V247.312L109.484 244H112.454L108.89 248.05L113.282 253H110.24ZM122.204 253.216C120.752 253.216 119.582 252.802 118.694 251.974C117.806 251.134 117.338 250.156 117.29 249.04H119.9C119.996 249.604 120.254 250.042 120.674 250.354C121.094 250.654 121.604 250.804 122.204 250.804C122.744 250.804 123.182 250.69 123.518 250.462C123.854 250.222 124.022 249.904 124.022 249.508C124.022 248.8 123.452 248.284 122.312 247.96L120.962 247.564C119.918 247.264 119.102 246.796 118.514 246.16C117.926 245.524 117.626 244.732 117.614 243.784C117.614 242.62 118.004 241.702 118.784 241.03C119.564 240.346 120.602 240.004 121.898 240.004C123.206 240.004 124.268 240.4 125.084 241.192C125.9 241.972 126.332 242.872 126.38 243.892H123.788C123.656 243.388 123.416 243.016 123.068 242.776C122.72 242.536 122.33 242.416 121.898 242.416C121.418 242.416 121.022 242.524 120.71 242.74C120.41 242.944 120.254 243.232 120.242 243.604C120.23 243.988 120.356 244.3 120.62 244.54C120.884 244.78 121.292 244.978 121.844 245.134L123.338 245.548C125.546 246.16 126.65 247.45 126.65 249.418C126.65 250.522 126.236 251.434 125.408 252.154C124.592 252.862 123.524 253.216 122.204 253.216ZM132.804 253.108C131.796 253.108 130.968 252.832 130.32 252.28C129.684 251.716 129.366 250.906 129.366 249.85V246.16H127.548V244H129.366V241.498H131.832V244H134.37V246.16H131.832V249.364C131.832 249.916 131.952 250.312 132.192 250.552C132.432 250.78 132.822 250.894 133.362 250.894C133.746 250.894 134.082 250.84 134.37 250.732V252.91C133.938 253.042 133.416 253.108 132.804 253.108ZM139.66 253.198C138.472 253.198 137.47 252.736 136.654 251.812C135.838 250.888 135.43 249.784 135.43 248.5C135.43 247.216 135.838 246.112 136.654 245.188C137.47 244.264 138.472 243.802 139.66 243.802C140.236 243.802 140.752 243.922 141.208 244.162C141.664 244.402 142.012 244.684 142.252 245.008V244H144.718V253H142.252V251.992C142.012 252.316 141.664 252.598 141.208 252.838C140.752 253.078 140.236 253.198 139.66 253.198ZM138.526 250.264C138.946 250.72 139.498 250.948 140.182 250.948C140.866 250.948 141.412 250.72 141.82 250.264C142.24 249.808 142.45 249.22 142.45 248.5C142.45 247.78 142.24 247.192 141.82 246.736C141.412 246.28 140.866 246.052 140.182 246.052C139.498 246.052 138.946 246.28 138.526 246.736C138.118 247.192 137.914 247.78 137.914 248.5C137.914 249.22 138.118 249.808 138.526 250.264ZM151.472 253.108C150.464 253.108 149.636 252.832 148.988 252.28C148.352 251.716 148.034 250.906 148.034 249.85V246.16H146.216V244H148.034V241.498H150.5V244H153.038V246.16H150.5V249.364C150.5 249.916 150.62 250.312 150.86 250.552C151.1 250.78 151.49 250.894 152.03 250.894C152.414 250.894 152.75 250.84 153.038 250.732V252.91C152.606 253.042 152.084 253.108 151.472 253.108ZM158.073 253.198C157.005 253.198 156.171 252.838 155.571 252.118C154.983 251.398 154.689 250.432 154.689 249.22V244H157.155V248.806C157.155 250.234 157.665 250.948 158.685 250.948C159.261 250.948 159.711 250.732 160.035 250.3C160.371 249.868 160.539 249.232 160.539 248.392V244H163.005V253H160.539V251.974C159.987 252.79 159.165 253.198 158.073 253.198ZM168.853 253.198C167.701 253.198 166.747 252.91 165.991 252.334C165.235 251.758 164.833 251.026 164.785 250.138H167.359C167.407 250.522 167.575 250.816 167.863 251.02C168.151 251.212 168.505 251.308 168.925 251.308C169.705 251.308 170.095 251.068 170.095 250.588C170.095 250.348 170.005 250.168 169.825 250.048C169.657 249.916 169.369 249.796 168.961 249.688L167.269 249.256C166.501 249.052 165.925 248.71 165.541 248.23C165.169 247.738 164.983 247.15 164.983 246.466C164.983 245.686 165.307 245.05 165.955 244.558C166.615 244.054 167.497 243.802 168.601 243.802C169.609 243.802 170.449 244.06 171.121 244.576C171.793 245.08 172.165 245.77 172.237 246.646H169.753C169.645 246.034 169.249 245.728 168.565 245.728C168.241 245.728 167.983 245.788 167.791 245.908C167.599 246.028 167.503 246.196 167.503 246.412C167.503 246.808 167.845 247.084 168.529 247.24L170.113 247.672C170.989 247.888 171.625 248.23 172.021 248.698C172.417 249.154 172.615 249.742 172.615 250.462C172.615 251.29 172.261 251.956 171.553 252.46C170.857 252.952 169.957 253.198 168.853 253.198Z" fill="black"/>
<circle cx="115.5" cy="307.5" r="16.5" fill="#FF3C8E"/>
<g clip-path="url(#clip2_0_1)">
<path d="M120.604 308.229H98.7292C98.3267 308.229 98 307.902 98 307.5C98 307.097 98.3267 306.771 98.7292 306.771H120.604C121.007 306.771 121.333 307.097 121.333 307.5C121.333 307.902 121.007 308.229 120.604 308.229Z" fill="white"/>
<path d="M114.771 314.063C114.584 314.063 114.398 313.991 114.255 313.85C113.97 313.565 113.97 313.103 114.255 312.819L119.573 307.5L114.256 302.183C113.972 301.899 113.972 301.436 114.256 301.152C114.541 300.868 115.003 300.868 115.287 301.152L121.121 306.985C121.405 307.27 121.405 307.732 121.121 308.016L115.287 313.85C115.144 313.991 114.958 314.063 114.771 314.063V314.063Z" fill="white"/>
<path d="M115.5 323.542C108.712 323.542 102.633 319.244 100.374 312.848C100.24 312.467 100.44 312.051 100.819 311.917C101.2 311.786 101.615 311.983 101.75 312.362C103.803 318.176 109.328 322.083 115.5 322.083C123.541 322.083 130.083 315.541 130.083 307.5C130.083 299.459 123.541 292.917 115.5 292.917C109.328 292.917 103.803 296.823 101.751 302.639C101.617 303.018 101.2 303.215 100.821 303.084C100.441 302.95 100.242 302.534 100.376 302.154C102.633 295.756 108.712 291.458 115.5 291.458C124.345 291.458 131.542 298.655 131.542 307.5C131.542 316.345 124.345 323.542 115.5 323.542Z" fill="white"/>
</g>
</g>
<defs>
<filter id="filter0_d_0_1" x="0" y="3" width="232" height="313" filterUnits="userSpaceOnUse" color-interpolation-filters="sRGB">
<feFlood flood-opacity="0" result="BackgroundImageFix"/>
<feColorMatrix in="SourceAlpha" type="matrix" values="0 0 0 0 0 0 0 0 0 0 0 0 0 0 0 0 0 0 127 0" result="hardAlpha"/>
<feOffset dy="4"/>
<feGaussianBlur stdDeviation="2"/>
<feComposite in2="hardAlpha" operator="out"/>
<feColorMatrix type="matrix" values="0 0 0 0 0 0 0 0 0 0 0 0 0 0 0 0 0 0 0.25 0"/>
<feBlend mode="normal" in2="BackgroundImageFix" result="effect1_dropShadow_0_1"/>
<feBlend mode="normal" in="SourceGraphic" in2="effect1_dropShadow_0_1" result="shape"/>
</filter>
<filter id="filter1_d_0_1" x="4" y="3" width="234" height="315" filterUnits="userSpaceOnUse" color-interpolation-filters="sRGB">
<feFlood flood-opacity="0" result="BackgroundImageFix"/>
<feColorMatrix in="SourceAlpha" type="matrix" values="0 0 0 0 0 0 0 0 0 0 0 0 0 0 0 0 0 0 127 0" result="hardAlpha"/>
<feOffset dx="5" dy="5"/>
<feGaussianBlur stdDeviation="2.5"/>
<feComposite in2="hardAlpha" operator="out"/>
<feColorMatrix type="matrix" values="0 0 0 0 0 0 0 0 0 0 0 0 0 0 0 0 0 0 0.03 0"/>
<feBlend mode="normal" in2="BackgroundImageFix" result="effect1_dropShadow_0_1"/>
<feBlend mode="normal" in="SourceGraphic" in2="effect1_dropShadow_0_1" result="shape"/>
</filter>
<filter id="filter2_d_0_1" x="0" y="0" width="232" height="313" filterUnits="userSpaceOnUse" color-interpolation-filters="sRGB">
<feFlood flood-opacity="0" result="BackgroundImageFix"/>
<feColorMatrix in="SourceAlpha" type="matrix" values="0 0 0 0 0 0 0 0 0 0 0 0 0 0 0 0 0 0 127 0" result="hardAlpha"/>
<feOffset dy="1"/>
<feGaussianBlur stdDeviation="2"/>
<feComposite in2="hardAlpha" operator="out"/>
<feColorMatrix type="matrix" values="0 0 0 0 0 0 0 0 0 0 0 0 0 0 0 0 0 0 0.25 0"/>
<feBlend mode="normal" in2="BackgroundImageFix" result="effect1_dropShadow_0_1"/>
<feBlend mode="normal" in="SourceGraphic" in2="effect1_dropShadow_0_1" result="shape"/>
</filter>
<filter id="filter3_d_0_1" x="57" y="92" width="108" height="108" filterUnits="userSpaceOnUse" color-interpolation-filters="sRGB">
<feFlood flood-opacity="0" result="BackgroundImageFix"/>
<feColorMatrix in="SourceAlpha" type="matrix" values="0 0 0 0 0 0 0 0 0 0 0 0 0 0 0 0 0 0 127 0" result="hardAlpha"/>
<feOffset dy="4"/>
<feGaussianBlur stdDeviation="2"/>
<feComposite in2="hardAlpha" operator="out"/>
<feColorMatrix type="matrix" values="0 0 0 0 0 0 0 0 0 0 0 0 0 0 0 0 0 0 0.25 0"/>
<feBlend mode="normal" in2="BackgroundImageFix" result="effect1_dropShadow_0_1"/>
<feBlend mode="normal" in="SourceGraphic" in2="effect1_dropShadow_0_1" result="shape"/>
</filter>
<clipPath id="clip0_0_1">
<rect width="1600" height="4649" fill="white" transform="translate(-319 -1643)"/>
</clipPath>
<clipPath id="clip1_0_1">
<rect width="100" height="100" fill="white" transform="translate(61 92)"/>
</clipPath>
<clipPath id="clip2_0_1">
<rect width="35" height="35" fill="white" transform="translate(98 290)"/>
</clipPath>
</defs>
</svg>
