<svg width="75" height="75" viewBox="0 0 75 75" fill="none" xmlns="http://www.w3.org/2000/svg">
<path d="M58.5205 58.8592H7.69043C7.08369 58.8592 6.5918 59.3511 6.5918 59.9579C6.5918 60.5646 7.08369 61.0565 7.69043 61.0565H58.5205C59.1272 61.0565 59.6191 60.5646 59.6191 59.9579C59.6191 59.3511 59.1272 58.8592 58.5205 58.8592ZM58.5205 54.4647H7.69043C7.08369 54.4647 6.5918 54.9566 6.5918 55.5633C6.5918 56.1701 7.08369 56.662 7.69043 56.662H58.5205C59.1272 56.662 59.6191 56.1701 59.6191 55.5633C59.6191 54.9566 59.1272 54.4647 58.5205 54.4647ZM65.1123 40.1461C64.5056 40.1461 64.0137 40.638 64.0137 41.2448V62.1551C64.0137 63.9726 62.5352 65.451 60.7178 65.451H5.49316C3.67573 65.451 2.19727 63.9726 2.19727 62.1551V27.054C2.19727 25.2365 3.67573 23.7581 5.49316 23.7581H39.821C40.4278 23.7581 40.9197 23.2662 40.9197 22.6594C40.9197 22.0527 40.4278 21.5608 39.821 21.5608H5.49316C2.46416 21.5608 0 24.025 0 27.054V62.1551C0 65.1841 2.46416 67.6483 5.49316 67.6483H60.7178C63.7468 67.6483 66.2109 65.1841 66.2109 62.1551V41.2448C66.2109 40.638 65.719 40.1461 65.1123 40.1461ZM59.0585 7.35181C50.2683 7.35181 43.1169 14.5032 43.1169 23.2933C43.1169 24.9872 43.3835 26.6198 43.8751 28.1526H36.2549C35.6481 28.1526 35.1562 28.6445 35.1562 29.2512C35.1562 29.858 35.6481 30.3499 36.2549 30.3499H44.7667C45.1481 31.1192 45.5892 31.854 46.085 32.5471H36.2549C35.6481 32.5471 35.1562 33.039 35.1562 33.6458C35.1562 34.2525 35.6481 34.7444 36.2549 34.7444H47.9798C50.8503 37.5223 54.7579 39.2349 59.0584 39.2349C67.8485 39.2349 74.9999 32.0835 74.9999 23.2933C75 14.5032 67.8486 7.35181 59.0585 7.35181ZM59.0585 37.0376C51.4799 37.0376 45.3142 30.8719 45.3142 23.2933C45.3142 15.7147 51.4799 9.54907 59.0585 9.54907C66.6371 9.54907 72.8027 15.7147 72.8027 23.2933C72.8027 30.8719 66.6371 37.0376 59.0585 37.0376ZM10.593 52.0599C10.9279 52.1533 11.4397 52.2522 12.085 52.2674H25.2136C28.0081 52.3221 30.7645 49.8257 30.7068 46.7743V33.6458C30.7068 30.6167 28.2426 28.1526 25.2136 28.1526H12.085C9.05596 28.1526 6.5918 30.6167 6.5918 33.6458V46.7743C6.5918 49.286 8.28706 51.408 10.593 52.0599ZM12.2164 50.0702C13.0901 47.3199 15.6841 45.3576 18.6492 45.3576C21.6145 45.3576 24.2084 47.3199 25.0821 50.0702H12.2164ZM14.4412 38.9524C14.4412 36.6321 16.3289 34.7444 18.6492 34.7444C20.9695 34.7444 22.8573 36.6321 22.8573 38.9524C22.8573 41.2728 20.9695 43.1605 18.6492 43.1605C16.3289 43.1605 14.4412 41.2726 14.4412 38.9524ZM8.78906 33.6458C8.78906 31.8283 10.2675 30.3499 12.085 30.3499H25.2136C27.0311 30.3499 28.5095 31.8283 28.5095 33.6458V46.7743C28.5095 47.8555 27.9861 48.8166 27.1796 49.418C26.4283 47.0441 24.7121 45.112 22.5208 44.0508C24.059 42.8798 25.0545 41.0305 25.0545 38.9524C25.0545 35.4206 22.1811 32.5471 18.6492 32.5471C15.1173 32.5471 12.2439 35.4206 12.2439 38.9524C12.2439 41.0305 13.2393 42.8798 14.7776 44.0508C12.5865 45.112 10.8703 47.0441 10.119 49.418C9.31245 48.8166 8.78906 47.8555 8.78906 46.7743V33.6458ZM64.541 19.4366L56.9194 27.0582C56.8128 27.1647 56.6398 27.1647 56.5332 27.0582L53.5759 24.101C53.1469 23.6719 52.4512 23.6719 52.0223 24.101C51.5933 24.53 51.5933 25.2257 52.0223 25.6546L54.9795 28.6118C55.4612 29.0935 56.0937 29.3343 56.7264 29.3343C57.359 29.3343 57.9916 29.0935 58.4732 28.6118L66.0948 20.9902C66.5238 20.5612 66.5238 19.8655 66.0948 19.4366C65.6656 19.0076 64.9699 19.0076 64.541 19.4366ZM58.5205 45.6756H36.2549C35.6481 45.6756 35.1562 46.1675 35.1562 46.7743C35.1562 47.381 35.6481 47.8729 36.2549 47.8729H58.5205C59.1272 47.8729 59.6191 47.381 59.6191 46.7743C59.6191 46.1675 59.1272 45.6756 58.5205 45.6756ZM58.5205 50.0702H36.2549C35.6481 50.0702 35.1562 50.5621 35.1562 51.1688C35.1562 51.7755 35.6481 52.2674 36.2549 52.2674H58.5205C59.1272 52.2674 59.6191 51.7755 59.6191 51.1688C59.6191 50.5621 59.1272 50.0702 58.5205 50.0702Z" fill="#39DB00"/>
</svg>
