<svg width="100" height="100" viewBox="0 0 100 100" fill="none" xmlns="http://www.w3.org/2000/svg">
<g clip-path="url(#clip0_17_5035)">
<path d="M82.5002 19.9569C82.3203 20.2274 82.1098 20.5364 81.8789 20.8752C79.5061 24.3583 77.1895 27.9815 77.1895 30.645C77.1895 35.1579 80.7004 37.519 84.1686 37.519C87.6395 37.519 91.1529 35.1579 91.1529 30.645C91.1529 27.9813 88.8363 24.3581 86.4635 20.8752C86.2326 20.5364 86.0221 20.2276 85.8422 19.9569C85.84 19.9534 85.8377 19.95 85.8354 19.9467C85.6605 19.6887 85.1299 18.9045 84.1695 18.9045C84.1674 18.9045 84.1654 18.9045 84.1633 18.9045C83.1996 18.9079 82.674 19.6961 82.5002 19.9569ZM84.1711 22.7139C85.5699 24.769 88.2232 28.7225 88.2232 30.645C88.2232 33.3698 86.1867 34.5893 84.1684 34.5893C82.1527 34.5893 80.1189 33.3696 80.1189 30.645C80.1191 28.7223 82.7725 24.7688 84.1711 22.7139Z" fill="#FBA100"/>
<path d="M98.5353 75.5378C99.3442 75.5378 100 74.8819 100 74.0729V62.0312C100 60.6616 98.8835 59.5476 97.511 59.5476H95.2942V55.0919H95.9442C97.3015 55.0919 98.4056 53.9878 98.4056 52.6306V46.247C98.4056 44.8897 97.3015 43.7856 95.9442 43.7856H73.1569C71.7997 43.7856 70.6956 44.8897 70.6956 46.247V52.6306C70.6956 53.9878 71.7997 55.0919 73.1569 55.0919H73.8069V59.5478H71.5901C70.2177 59.5478 69.1011 60.6618 69.1011 62.0313V92.5981C69.1011 93.9706 70.2177 95.0872 71.5901 95.0872H97.511C98.8835 95.0872 100 93.9706 100 92.5981V80.8331C100 80.0241 99.3442 79.3683 98.5353 79.3683C97.7263 79.3683 97.0704 80.0241 97.0704 80.8331V92.1575H72.0308V86.2677H83.5929C84.9286 86.2677 86.0155 85.181 86.0155 83.845V70.7899C86.0155 69.4542 84.9288 68.3673 83.5929 68.3673H72.0308V62.4774H97.0704V74.0731C97.0704 74.8821 97.7263 75.5378 98.5353 75.5378ZM83.0856 71.297V83.3378H72.0308V71.297H83.0856ZM92.3646 59.5478H76.7366V55.0919H92.3646V59.5478ZM75.2718 52.1622H73.6251V46.7151H95.4759V52.1622H93.8292H75.2718Z" fill="#FBA100"/>
<path d="M69.5142 21.5268L83.632 7.41389C84.2042 6.84202 84.2042 5.91448 83.6323 5.34241C83.0605 4.77014 82.1329 4.76995 81.5609 5.34202L67.3761 19.5219C66.5462 19.035 65.597 18.7744 64.6062 18.7744C63.1404 18.7744 61.7648 19.3428 60.7331 20.3744L58.6042 22.5033C58.3331 22.4545 49.8462 22.6143 49.8462 22.6143C48.4236 22.6442 47.9943 22.7506 47.0411 23.7307C46.9583 23.8158 40.0712 30.7059 40.0712 30.7059L40.071 30.7061L40.0708 30.7063L29.8913 40.8862C29.8911 40.8864 29.8909 40.8865 29.8907 40.8867C29.8905 40.8869 29.8904 40.8871 29.8902 40.8873L20.7421 50.0356L19.3948 48.6879C19.3921 48.6852 19.3894 48.6824 19.3864 48.6797C18.4614 47.769 16.9646 47.7729 16.0497 48.6879L12.4179 52.3199C11.9726 52.7653 11.7273 53.3582 11.7273 53.9897C11.7273 54.6211 11.9726 55.2139 12.4179 55.6594L19.1167 62.3582L11.3497 70.1299L8.41633 67.1963C6.4927 65.2727 3.36301 65.2727 1.43958 67.1963C-0.478393 69.1145 -0.47937 72.2408 1.43762 74.1655C1.4384 74.1662 1.43918 74.167 1.43997 74.1678L15.1173 87.8405C16.0448 88.7717 17.2835 89.2848 18.605 89.2848C19.9267 89.2848 21.1652 88.7719 22.0886 87.8448C23.0187 86.9186 23.5316 85.6824 23.5329 84.3641C23.5343 83.043 23.022 81.8026 22.0907 80.8713L19.1568 77.9371L26.9239 70.1655L33.614 76.8557C34.0601 77.309 34.657 77.5586 35.2943 77.5586H35.2945C35.932 77.5586 36.5286 77.309 36.9669 76.8639L40.5849 73.2457C41.0384 72.7994 41.288 72.2026 41.288 71.5651C41.288 70.9276 41.0384 70.3305 40.5933 69.8928L39.2456 68.5448L54.207 53.5832C54.779 53.0112 54.779 52.0836 54.207 51.5117C53.6349 50.9397 52.7074 50.9397 52.1355 51.5117L47.3583 56.2891L43.0814 52.0106C43.0693 51.9975 43.0585 51.9838 43.0458 51.9711C43.0333 51.9586 43.0196 51.9477 43.0068 51.9358L32.9978 41.9231L36.0171 38.9037L39.1197 42.0065C39.4056 42.2926 39.7806 42.4356 40.1554 42.4356C40.5302 42.4356 40.9052 42.2926 41.1911 42.0065C41.7632 41.4344 41.7632 40.5071 41.1911 39.935L38.0886 36.8322L41.1083 33.8123L44.2138 36.9137C44.4997 37.1992 44.8743 37.342 45.2489 37.342C45.6241 37.342 45.9993 37.1989 46.2855 36.9123C46.8572 36.3399 46.8566 35.4123 46.2841 34.8408L43.18 31.7408L46.2011 28.7196L49.3064 31.825C49.5923 32.1112 49.9673 32.2541 50.3421 32.2541C50.7169 32.2541 51.0919 32.1112 51.3779 31.825C51.9499 31.253 51.9499 30.3256 51.3779 29.7535L48.2724 26.6481C48.2724 26.6481 49.2906 25.6201 49.3491 25.5627C49.4945 25.5526 57.9114 25.3791 57.9736 25.3785C58.0191 25.4182 63.8634 31.2627 63.9023 31.3073C63.9017 31.3703 63.7339 39.7842 63.723 39.9324C63.6654 39.9912 57.0183 46.6287 57.0183 46.6287C56.4462 47.2008 56.4462 48.1283 57.0183 48.7002C57.5904 49.2725 58.5179 49.2723 59.0898 48.7002C59.0898 48.7002 65.4685 42.324 65.5532 42.2416C66.5349 41.2871 66.6415 40.8576 66.6716 39.4328C66.6716 39.4328 66.8259 30.9522 66.7777 30.6813L68.9058 28.5532C70.8152 26.6432 71.0169 23.6643 69.5142 21.5268ZM20.0191 82.9428C20.3962 83.3201 20.6038 83.8237 20.6032 84.3612C20.6027 84.8957 20.396 85.3957 20.0171 85.7731C19.6433 86.1483 19.1419 86.3551 18.6052 86.3551C18.0685 86.3551 17.5671 86.1483 17.1909 85.7707L3.51184 72.0969C2.73372 71.3143 2.73313 70.0455 3.51086 69.2678C3.88762 68.891 4.39075 68.6836 4.92766 68.6836C5.46457 68.6836 5.9677 68.891 6.34446 69.2678L20.0191 82.9428ZM17.0851 75.8655L13.421 72.2012L21.188 64.4295L24.8521 68.0938L17.0851 75.8655ZM35.2943 74.3932L22.2234 61.3219C22.2234 61.3219 22.2234 61.3217 22.2232 61.3217C22.2232 61.3217 22.223 61.3217 22.223 61.3215L14.8911 53.9895L17.7218 51.1586L19.6575 53.0949C19.673 53.1117 19.6872 53.1295 19.7034 53.1457C19.7197 53.1619 19.7372 53.1762 19.754 53.1914L30.7683 64.2088C30.7749 64.2156 30.7804 64.2229 30.787 64.2297C30.7937 64.2364 30.8011 64.242 30.8077 64.2485L38.122 71.5649L35.2943 74.3932ZM45.2864 58.3604L37.1741 66.4729L33.8952 63.193L42.0075 55.0805L45.2864 58.3604ZM39.9364 53.0084L31.8241 61.1211L28.1632 57.4592L36.2757 49.3465L39.9364 53.0084ZM34.2046 47.2744L26.0919 55.3873L22.813 52.1074L30.9257 43.9946L34.2046 47.2744ZM66.8339 26.4813L65.0347 28.2805L61.0007 24.25L62.8046 22.4461C63.2831 21.9676 63.923 21.7041 64.6062 21.7041C65.2894 21.7041 65.9292 21.9676 66.4077 22.4461L66.8341 22.8725C67.829 23.8674 67.8288 25.4864 66.8339 26.4813Z" fill="#FBA100"/>
</g>
<defs>
<clipPath id="clip0_17_5035">
<rect width="100" height="100" fill="white"/>
</clipPath>
</defs>
</svg>
