<svg width="232" height="313" viewBox="0 0 232 313" fill="none" xmlns="http://www.w3.org/2000/svg">
<g filter="url(#filter0_d_17_4693)">
<path fill-rule="evenodd" clip-rule="evenodd" d="M103.354 3H4V80.7507C4.83831 80.6314 5.66848 80.4985 6.48936 80.3502C16.662 78.5777 25.2398 74.4598 30.6279 65.6511C33.2536 61.4184 35.1277 56.1447 36.994 50.893C39.0512 45.1042 41.0989 39.3421 44.1331 35.0309C49.9199 26.8085 59.427 23.7737 69.5997 22.0012C71.1519 21.7307 72.7228 21.4875 74.2942 21.2443C83.0212 19.8934 91.7672 18.5395 97.4585 12.4896C99.8405 9.93918 101.649 6.54463 103.354 3ZM4 95.7625L12.8688 89.7318L36.2099 73.86L59.6829 57.8986L83.1559 41.9371L106.629 25.9757L129.97 10.1039L140.417 3L129.97 10.1038L106.629 25.9756L83.1559 41.9371L59.6829 57.8985L36.2099 73.86L12.8688 89.7318L4 95.7625ZM4 308V131.989C4.45442 131.054 4.90365 130.105 5.34432 129.147C6.83804 125.899 8.24733 122.528 9.65916 119.15C12.5863 112.146 15.5243 105.116 19.2482 99.1134C24.6363 90.3047 31.6193 83.8414 41.7919 82.0689C46.6935 81.1832 52.2869 81.379 57.8568 81.574H57.8569C63.9967 81.789 70.108 82.003 75.2327 80.7662C85.0067 78.4074 91.3241 70.6817 96.7122 61.873C97.5342 60.5291 98.3377 59.1578 99.1415 57.7861L99.1419 57.7854C103.606 50.1662 108.081 42.5303 115.799 39.4617C119.749 37.9078 124.548 37.6026 129.347 37.2974C135.454 36.909 141.562 36.5206 145.919 33.5579C150.197 30.6487 152.805 25.3657 155.401 20.1048L155.401 20.1047C157.607 15.636 159.805 11.1833 163.012 8.21481C166.245 5.22215 170.533 3.71877 174.782 3H228V308H4Z" fill="white"/>
</g>
<defs>
<filter id="filter0_d_17_4693" x="0" y="0" width="232" height="313" filterUnits="userSpaceOnUse" color-interpolation-filters="sRGB">
<feFlood flood-opacity="0" result="BackgroundImageFix"/>
<feColorMatrix in="SourceAlpha" type="matrix" values="0 0 0 0 0 0 0 0 0 0 0 0 0 0 0 0 0 0 127 0" result="hardAlpha"/>
<feOffset dy="1"/>
<feGaussianBlur stdDeviation="2"/>
<feComposite in2="hardAlpha" operator="out"/>
<feColorMatrix type="matrix" values="0 0 0 0 0 0 0 0 0 0 0 0 0 0 0 0 0 0 0.25 0"/>
<feBlend mode="normal" in2="BackgroundImageFix" result="effect1_dropShadow_17_4693"/>
<feBlend mode="normal" in="SourceGraphic" in2="effect1_dropShadow_17_4693" result="shape"/>
</filter>
</defs>
</svg>
